/* XPM */
static char *bcdedda0a57f438cb486f25be2f1e421rp4CXXCLtzw1P21a[] = {
/* columns rows colors chars-per-pixel */
"32 32 12 1 ",
"  c cyan",
". c #0C0816",
"X c #26323C",
"o c #4C4138",
"O c #70503A",
"+ c #2C4B73",
"@ c #3C7373",
"# c #746658",
"$ c #845A78",
"% c #B67C74",
"& c #6B7B89",
"* c #939388",
/* pixels */
"                                ",
"                                ",
"          .......               ",
"       ...XXXXXXX....           ",
"     ..XX+++++++++XXX..         ",
"    ..XX+++++@@@@@+++XX.        ",
"   ..oooo....+@&&&&@+++X.       ",
"   .oOOOO%OO...+@@@+++++X.      ",
"  .oOo**oO%%%#O...X+++++XX.     ",
"  .oO*..*.O#%%%%##o.XX++XXX.    ",
"  .o%*oo.......%%%#Oo.X+XX+X.   ",
"  .oO...X+++@@@....%#O..X+++X.  ",
"  ...X++++@@&@@@@@+X.%#O.X++X.  ",
"   .XX+++@@@@@&&&&@++..#O.X+X.  ",
"  ..o...XX.X+@@&&&&@++X..O.XX.  ",
"  .O%%%%%%%o.XX+@@@&@+++X..XX.  ",
" ..%%OOOOOOOO#o.X+@@@++++X...   ",
" .%%Oooo%%%O%%%%o.+++@++++X..   ",
" .%Oo**.o%O%OO#O%%o.@++++++X..  ",
" .Oo*OO*.O%O%#%%OO#%o.++++++X.  ",
" .Oo*.#*.O%%O%O%%#OO##.+++@++X. ",
" .%Oo**.oO%%#%OO%%#OO%%.++@@++. ",
" .%OO..OO%%O#%#O%%%O%O%#.+@@@+. ",
" .#%%##%%%O#%%#O%%%O%O%%%.+@@+. ",
" ..#%%OOO##%O#O%%%%#%%O%%%.+++. ",
"  ..#%%%%OOOO%%%%%#%%%#%%%%.+X. ",
"    ....#O$#%%#OO#%%%#O%%%%%.X. ",
"         ........$%%#%%%%%%%#X. ",
"                ...OO##%%%###.  ",
"                   ...O####O..  ",
"                      ......    ",
"                                "
};
