/* XPM */
static char *_ab29a5170d1434fe58242c36fd67673EOj1m0u9aC6qMgIK[] = {
/* columns rows colors chars-per-pixel */
"32 32 5 1 ",
"  c #477F91",
". c #4C8FA6",
"X c #509EBA",
"o c #61B0C1",
"O c #7BBBC8",
/* pixels */
"......XX....      XX......      ",
"......XX....      XX......      ",
"....XX............XX............",
"....XX............XX............",
"XX..oo......XXoo..OO..........XX",
"XX..oo......XXoo..OO..........XX",
"..XXXXooOOoo    XXoo......XXoo  ",
"..XXXXooOOoo    XXoo......XXoo  ",
"......XX........  XX....oo    ..",
"......XX........  XX....oo    ..",
"......XX............XXoo  ......",
"......XX............XXoo  ......",
"....oo  XX............oo........",
"....oo  XX............oo........",
"oooo  ..  XXXXXXXX..XX..........",
"oooo  ..  XXXXXXXX..XX..........",
"..    ..XX......  XXoo..........",
"..    ..XX......  XXoo..........",
"........oo......    OO........XX",
"........oo......    OO........XX",
"XX....ooOO........  XXooOOXXoo  ",
"XX....ooOO........  XXooOOXXoo  ",
"  XXoo..............oo..      ..",
"  XXoo..............oo..      ..",
"..  XX............oo............",
"..  XX............oo............",
"....  oo........XX    ........XX",
"....  oo........XX    ........XX",
"XXoo....XXooooXX  ........oooo  ",
"XXoo....XXooooXX  ........oooo  ",
"..  ooXX......  ....XXooXX..  ..",
"..  ooXX......  ....XXooXX..  .."
};
