/* XPM */
static char *_1318bedacad45b1b5b194c9e6ce238c6vUcOWRnCk4a7KRZ[] = {
/* columns rows colors chars-per-pixel */
"32 32 10 1 ",
"  c cyan",
". c #0C0816",
"X c #26323C",
"o c #4C4138",
"O c #70503A",
"+ c #2C4B73",
"@ c #3C7373",
"# c #746658",
"$ c #555461",
"% c #6B7B89",
/* pixels */
"                                ",
"           ......               ",
"         ..XXXXXX...            ",
"        .X++X+$++XX...          ",
"       .X++X@@+X+++++X.         ",
"      .X+@XX@@X++@@$+++..       ",
"      .+@@X+++X+@@@++++++.      ",
"     .X+$+X++X.+$@+++X....      ",
"     .++$+.++X.+++++X.oOOo.     ",
"    .X++++.++X.++++X.oO##Oo.    ",
"    .X++++.X+X.X++X.oO###Oo.    ",
"    .X+++X.XXX..XXX.oOOOOOo..   ",
"   ..XX++XX.X....XX..oOOOOo.X.  ",
"   .+.X++.....ooX..X..oOOO.X$%. ",
"   .+X....XXX.....X$%.oOOO.X$$. ",
"   .X....ooooX....XX$.oOOOO.X.. ",
"   .X..XooooX...o....oOOoOOO..  ",
"   .X.o.......#.oo.o.o#o.o#O.   ",
"    .XOoooo. .#..o.o..OO.o#.    ",
"    ..XOOO.. ..#..#...OoO.O.    ",
"     ...... ...#..#.o.O.O.OO.   ",
"     .XooX. .#..#.#.o..O##.O.   ",
"     .XOOO. ..##.#.o. .O.#.O.   ",
"    ..oOOo.......#.o. .O.#...   ",
"   .oOOOOOOOo..O.#.o.  .O..O.   ",
"  .oOOXOOOXOOo.O.#...  .O.O..   ",
"  .OOXOOOOOXOO..O...   .o.o.o.  ",
"  .OO.OOOOO.OO. . ..   ...o...  ",
"  ..X.OOOOO.o.            ..    ",
"   ....ooo...                   ",
"      .....                     ",
"                                "
};
